<svg width="160" height="160" fill="none" xmlns="http://www.w3.org/2000/svg"><path fill="#FFE17F" d="M0 0h160v160H0z"/><g clip-path="url(#a)" fill="#363636"><path d="M102.3 39.5c0-.7-.5-1.5-1.3-1.5H58c-.7 0-1.3.8-1.3 1.5V43h45.6v-3.5ZM103.2 119.8h-9.6v-10.4h-7v2.5H67.8a3.5 3.5 0 0 0-3.2-2.1h-12c-2 0-3.6 1.6-3.6 3.5v3c0 2 1.6 3.5 3.6 3.5h12c1.5 0 2.8-.9 3.3-2.3h18.7v2.3h-9.5c-.5 0-1 .4-1 1v3.2c0 .5.5 1 1 1h26.1c.5 0 1-.5 1-1v-3.2c0-.6-.5-1-1-1ZM109.7 50.4a7 7 0 0 0-6.8-5H56a7 7 0 0 0-7.1 7v46.9c0 3.9 3.3 7 7.1 7H103c3.9 0 7.1-3.1 7.1-7V88.9a23.2 23.2 0 0 0-.3-38.5Zm-48.5 49.8a6 6 0 1 1 0-11.9 6 6 0 0 1 0 11.9Zm6-32.7c0 .8-.6 1.5-1.4 1.5h-9c-.7 0-1.4-.7-1.4-1.5V53.4c0-.8.7-1.4 1.4-1.4h9c.8 0 1.4.6 1.4 1.4v14.1ZM96.8 90a20 20 0 1 1 0-40.2 20 20 0 0 1 0 40.2Z"/><path d="M96.8 82a12.2 12.2 0 1 0 0-24.5 12.2 12.2 0 0 0 0 24.5ZM80.6 71.2a1.4 1.4 0 1 0 0-2.9 1.4 1.4 0 0 0 0 2.9ZM113 71.2a1.4 1.4 0 1 0 0-2.9 1.4 1.4 0 0 0 0 2.9ZM88.1 57.4a1.4 1.4 0 1 0 0-2.8 1.4 1.4 0 0 0 0 2.8ZM105.4 85a1.4 1.4 0 1 0 0-3 1.4 1.4 0 0 0 0 3ZM104.7 57a1.4 1.4 0 1 0 0-2.9 1.4 1.4 0 0 0 0 2.9ZM88.8 85.3a1.4 1.4 0 1 0 0-2.8 1.4 1.4 0 0 0 0 2.8Z"/></g><defs><clipPath id="a"><path fill="#fff" transform="translate(49 38)" d="M0 0h71v87H0z"/></clipPath></defs></svg>